<?xml version="1.0" encoding="utf-8"?>
<!-- Generator: Adobe Illustrator 21.0.0, SVG Export Plug-In . SVG Version: 6.00 Build 0)  -->
<svg version="1.1"
	 id="Ebene_1" shape-rendering="geometricPrecision" text-rendering="geometricPrecision" image-rendering="optimizeQuality"
	 xmlns="http://www.w3.org/2000/svg" xmlns:xlink="http://www.w3.org/1999/xlink" x="0px" y="0px" viewBox="0 0 133.4 73.701"
	 enable-background="new 0 0 133.4 73.701" xml:space="preserve">
<g id="XMLID_1_">
	<g>
		<path d="M133.4,61.4l-2.17,12.3H43.01l2.17-12.3h17.88v1.94c-0.17,0-0.31,0.01-0.42,0.04c-0.12,0.03-0.22,0.07-0.29,0.14
			c-0.08,0.06-0.15,0.14-0.2,0.24c-0.04,0.1-0.08,0.22-0.11,0.36c-0.03,0.15-0.04,0.27-0.03,0.37c0,0.1,0.04,0.18,0.09,0.24
			c0.05,0.07,0.13,0.11,0.24,0.14c0.1,0.02,0.24,0.03,0.4,0.03c0.01,0,0.01,0,0.02,0l0.03,0.77c-0.06-0.01-0.13-0.01-0.2-0.01
			c-0.15,0-0.27,0.01-0.37,0.02c-0.09,0.01-0.17,0.03-0.23,0.05c-0.06,0.02-0.11,0.05-0.14,0.08c-0.03,0.03-0.05,0.06-0.06,0.1
			l-1.05,5.28c0,0.04,0,0.07,0.02,0.1c0.01,0.03,0.05,0.06,0.1,0.08c0.05,0.02,0.13,0.03,0.22,0.04c0.09,0.01,0.21,0.02,0.36,0.02
			c0.14,0,0.26-0.01,0.36-0.02c0.1-0.01,0.18-0.02,0.24-0.04c0.06-0.02,0.11-0.05,0.14-0.08s0.05-0.06,0.05-0.1l1.05-5.28l0.86,0.11
			c0,0.05,0,0.1,0.01,0.15c0,0.06,0,0.12,0.01,0.18l0.62,4.76c0.01,0.06,0.02,0.11,0.04,0.15c0.03,0.05,0.07,0.08,0.14,0.1
			c0.07,0.02,0.17,0.04,0.29,0.05c0.13,0.01,0.3,0.02,0.52,0.02c0.14,0,0.27,0,0.37-0.01c0.11,0,0.2-0.01,0.28-0.03
			c0.08-0.02,0.15-0.05,0.2-0.08c0.06-0.03,0.1-0.08,0.14-0.13c0.29-0.38,0.56-0.77,0.81-1.17c0.24-0.4,0.47-0.82,0.69-1.23
			c0.21-0.42,0.41-0.85,0.59-1.27c0.07-0.18,0.14-0.36,0.21-0.53l0.98,0.38c-0.07,0.14-0.14,0.29-0.19,0.43
			c-0.11,0.29-0.19,0.59-0.24,0.9c-0.05,0.3-0.07,0.58-0.07,0.85c0,0.34,0.04,0.64,0.14,0.89c0.1,0.25,0.24,0.46,0.43,0.62
			c0.19,0.16,0.42,0.28,0.71,0.36c0.28,0.08,0.61,0.12,0.99,0.12c0.23,0,0.45-0.02,0.67-0.04c0.23-0.03,0.43-0.06,0.6-0.1
			c0.18-0.04,0.33-0.08,0.46-0.13c0.13-0.05,0.21-0.1,0.26-0.14c0.04-0.04,0.08-0.1,0.12-0.17c0.03-0.08,0.06-0.16,0.08-0.24
			c0.02-0.09,0.04-0.18,0.05-0.26c0.01-0.09,0.02-0.17,0.02-0.23c0-0.06-0.01-0.11-0.03-0.13c-0.02-0.03-0.06-0.05-0.1-0.05
			c-0.05,0-0.13,0.02-0.23,0.06s-0.23,0.08-0.39,0.13c-0.15,0.04-0.34,0.08-0.54,0.12c-0.21,0.04-0.44,0.06-0.7,0.06
			c-0.37,0-0.64-0.08-0.81-0.25c-0.16-0.16-0.24-0.4-0.24-0.72c0-0.07,0-0.16,0.01-0.24c0.01-0.09,0.02-0.18,0.03-0.28h0.55
			c0.57,0,1.07-0.04,1.49-0.13c0.42-0.08,0.76-0.21,1.03-0.37c0.27-0.17,0.47-0.36,0.6-0.59c0.1-0.17,0.16-0.36,0.18-0.56l1.21,0.24
			l-0.74,3.68c-0.01,0.04,0,0.07,0.01,0.1c0.02,0.03,0.05,0.06,0.1,0.08c0.06,0.02,0.13,0.03,0.23,0.04
			c0.09,0.01,0.21,0.02,0.35,0.02s0.27-0.01,0.37-0.02c0.09-0.01,0.17-0.02,0.23-0.04c0.07-0.02,0.11-0.05,0.14-0.08
			c0.03-0.03,0.05-0.06,0.06-0.1l0.47-2.38c0.05-0.24,0.13-0.48,0.24-0.7c0.1-0.22,0.23-0.42,0.37-0.59s0.28-0.3,0.43-0.4
			c0.15-0.11,0.3-0.16,0.43-0.16c0.07,0,0.13,0.01,0.18,0.02c0.05,0.02,0.1,0.03,0.14,0.04c0.05,0.02,0.09,0.03,0.12,0.05
			c0.04,0.01,0.07,0.02,0.11,0.02s0.08-0.03,0.12-0.09c0.04-0.05,0.07-0.12,0.1-0.21c0.02-0.07,0.05-0.14,0.06-0.21l0.67,0.19
			c-0.11,0.24-0.16,0.5-0.16,0.78c0,0.26,0.04,0.47,0.14,0.64c0.1,0.17,0.22,0.31,0.37,0.43c0.14,0.11,0.3,0.21,0.47,0.29
			c0.18,0.08,0.34,0.15,0.48,0.23c0.15,0.07,0.27,0.15,0.37,0.24c0.09,0.09,0.14,0.2,0.14,0.34c0,0.1-0.02,0.19-0.06,0.28
			c-0.03,0.08-0.09,0.16-0.17,0.23c-0.08,0.07-0.18,0.12-0.3,0.16c-0.12,0.03-0.26,0.05-0.42,0.05c-0.24,0-0.43-0.02-0.59-0.07
			c-0.15-0.05-0.29-0.1-0.39-0.16c-0.11-0.06-0.2-0.11-0.26-0.16c-0.07-0.05-0.13-0.07-0.19-0.07c-0.03,0-0.06,0.02-0.09,0.05
			c-0.02,0.03-0.05,0.08-0.07,0.13c-0.03,0.06-0.05,0.12-0.07,0.19c-0.01,0.06-0.03,0.13-0.04,0.2c-0.02,0.07-0.03,0.13-0.03,0.18
			c-0.01,0.06-0.01,0.1-0.01,0.14c0,0.06,0.01,0.1,0.02,0.14c0.01,0.03,0.04,0.07,0.07,0.1c0.04,0.04,0.12,0.09,0.21,0.14
			c0.1,0.05,0.21,0.1,0.35,0.13c0.13,0.04,0.29,0.08,0.46,0.11c0.17,0.02,0.35,0.04,0.54,0.04c0.4,0,0.75-0.05,1.07-0.16
			c0.31-0.1,0.58-0.25,0.8-0.44c0.22-0.18,0.38-0.4,0.5-0.66c0.06-0.12,0.1-0.26,0.13-0.4l1.08,0.21l-0.22,1.11
			c-0.01,0.04-0.01,0.07,0.01,0.1c0.02,0.03,0.05,0.06,0.1,0.08c0.06,0.02,0.13,0.03,0.22,0.04c0.1,0.01,0.22,0.02,0.36,0.02
			s0.27-0.01,0.37-0.02c0.09-0.01,0.17-0.02,0.23-0.04c0.07-0.02,0.11-0.05,0.14-0.08s0.05-0.06,0.06-0.1l1.05-5.28
			c0-0.04,0-0.07-0.02-0.1c-0.01-0.03-0.05-0.06-0.1-0.08c-0.05-0.02-0.13-0.04-0.22-0.05c-0.05-0.01-0.1-0.01-0.16-0.01l-0.03-0.77
			c0.17,0,0.3-0.01,0.41-0.03c0.12-0.03,0.22-0.07,0.29-0.14c0.08-0.06,0.15-0.14,0.19-0.24c0.05-0.1,0.09-0.22,0.12-0.37
			c0.02-0.14,0.04-0.26,0.03-0.36c0-0.1-0.04-0.18-0.09-0.24c-0.05-0.07-0.13-0.11-0.24-0.14c-0.1-0.03-0.24-0.04-0.4-0.04V61.4
			h4.68h39.01H133.4z M129.83,67.5c0.02-0.14,0.03-0.28,0.03-0.42c0-0.2-0.03-0.4-0.08-0.58c-0.05-0.19-0.14-0.35-0.25-0.49
			c-0.12-0.13-0.27-0.25-0.46-0.33s-0.42-0.12-0.7-0.12c-0.22,0-0.44,0.04-0.66,0.11c-0.21,0.07-0.4,0.17-0.58,0.28
			c-0.18,0.12-0.34,0.25-0.48,0.39c-0.14,0.15-0.25,0.29-0.33,0.43l0.17-0.88c0.01-0.03,0-0.07-0.01-0.1s-0.04-0.05-0.09-0.07
			c-0.04-0.02-0.1-0.03-0.18-0.04c-0.07-0.01-0.17-0.02-0.29-0.02c-0.12,0-0.23,0.01-0.31,0.02c-0.09,0.01-0.16,0.02-0.21,0.04
			c-0.05,0.02-0.09,0.04-0.12,0.07c-0.02,0.03-0.04,0.07-0.05,0.1l-1.06,5.3c-0.01,0.04,0,0.07,0.01,0.1
			c0.02,0.03,0.05,0.06,0.11,0.08c0.05,0.02,0.12,0.03,0.22,0.04c0.09,0.01,0.21,0.02,0.35,0.02c0.15,0,0.27-0.01,0.37-0.02
			c0.1-0.01,0.17-0.02,0.24-0.04c0.06-0.02,0.1-0.05,0.13-0.08s0.05-0.06,0.06-0.1l0.48-2.4c0.05-0.26,0.14-0.51,0.26-0.75
			c0.12-0.23,0.26-0.44,0.42-0.61c0.15-0.18,0.32-0.32,0.5-0.42c0.17-0.1,0.34-0.15,0.5-0.15c0.18,0,0.31,0.05,0.38,0.17
			c0.08,0.11,0.12,0.26,0.12,0.44c0,0.07-0.01,0.16-0.02,0.26c-0.01,0.09-0.02,0.19-0.04,0.29l-0.64,3.17
			c-0.01,0.04-0.01,0.07,0.01,0.1s0.05,0.06,0.1,0.08c0.06,0.02,0.13,0.03,0.22,0.04c0.09,0.01,0.21,0.02,0.36,0.02
			s0.27-0.01,0.36-0.02c0.1-0.01,0.18-0.02,0.24-0.04c0.06-0.02,0.11-0.05,0.14-0.08s0.05-0.06,0.06-0.1l0.65-3.27
			C129.79,67.78,129.81,67.63,129.83,67.5z M123.43,67.5c0.01-0.14,0.02-0.28,0.02-0.42c0-0.2-0.02-0.4-0.07-0.58
			c-0.05-0.19-0.14-0.35-0.26-0.49c-0.11-0.13-0.26-0.25-0.45-0.33s-0.42-0.12-0.7-0.12c-0.23,0-0.45,0.04-0.66,0.11
			s-0.41,0.17-0.59,0.28c-0.18,0.12-0.34,0.25-0.47,0.39c-0.14,0.15-0.25,0.29-0.34,0.43l0.18-0.88c0-0.03,0-0.07-0.01-0.1
			c-0.02-0.03-0.05-0.05-0.09-0.07c-0.04-0.02-0.1-0.03-0.18-0.04c-0.08-0.01-0.18-0.02-0.3-0.02c-0.12,0-0.22,0.01-0.3,0.02
			c-0.09,0.01-0.16,0.02-0.21,0.04c-0.06,0.02-0.1,0.04-0.12,0.07c-0.03,0.03-0.04,0.07-0.05,0.1l-1.06,5.3
			c-0.01,0.04-0.01,0.07,0.01,0.1c0.01,0.03,0.05,0.06,0.1,0.08c0.06,0.02,0.13,0.03,0.22,0.04c0.1,0.01,0.22,0.02,0.36,0.02
			s0.26-0.01,0.36-0.02c0.1-0.01,0.18-0.02,0.24-0.04c0.06-0.02,0.11-0.05,0.14-0.08s0.05-0.06,0.06-0.1l0.48-2.4
			c0.05-0.26,0.13-0.51,0.26-0.75c0.12-0.23,0.26-0.44,0.41-0.61c0.16-0.18,0.33-0.32,0.5-0.42c0.18-0.1,0.35-0.15,0.51-0.15
			c0.18,0,0.3,0.05,0.38,0.17c0.07,0.11,0.11,0.26,0.11,0.44c0,0.07,0,0.16-0.01,0.26c-0.01,0.09-0.03,0.19-0.05,0.29l-0.64,3.17
			c-0.01,0.04,0,0.07,0.02,0.1c0.01,0.03,0.05,0.06,0.1,0.08c0.05,0.02,0.12,0.03,0.22,0.04c0.09,0.01,0.21,0.02,0.36,0.02
			c0.14,0,0.26-0.01,0.36-0.02c0.1-0.01,0.18-0.02,0.24-0.04c0.06-0.02,0.1-0.05,0.14-0.08c0.03-0.03,0.04-0.06,0.05-0.1l0.66-3.27
			C123.39,67.78,123.41,67.63,123.43,67.5z M117.12,68.56c0.05-0.3,0.08-0.6,0.08-0.88c0-0.34-0.05-0.64-0.14-0.91
			c-0.1-0.26-0.24-0.48-0.44-0.66c-0.19-0.18-0.43-0.32-0.72-0.41c-0.29-0.09-0.64-0.14-1.04-0.14c-0.4,0-0.77,0.06-1.09,0.17
			c-0.33,0.11-0.62,0.26-0.87,0.45c-0.25,0.19-0.46,0.41-0.64,0.67c-0.18,0.25-0.33,0.52-0.45,0.8c-0.11,0.29-0.19,0.58-0.25,0.88
			c-0.05,0.3-0.08,0.6-0.08,0.88c0,0.34,0.05,0.64,0.14,0.9c0.1,0.27,0.24,0.49,0.44,0.67c0.19,0.18,0.43,0.32,0.72,0.41
			c0.29,0.09,0.64,0.14,1.04,0.14c0.4,0,0.77-0.06,1.1-0.17c0.32-0.11,0.61-0.26,0.86-0.45c0.25-0.19,0.46-0.42,0.65-0.67
			c0.18-0.25,0.32-0.52,0.44-0.8C116.98,69.15,117.06,68.86,117.12,68.56z M110.79,65.94c0.06-0.2,0.09-0.42,0.09-0.66
			c0-0.26-0.05-0.5-0.15-0.69c-0.1-0.2-0.26-0.36-0.46-0.49c-0.2-0.13-0.45-0.22-0.74-0.29c-0.3-0.06-0.65-0.09-1.06-0.09h-1.84
			c-0.15,0-0.27,0.04-0.38,0.11c-0.11,0.08-0.17,0.21-0.21,0.38l-1.34,6.69c-0.03,0.17-0.02,0.29,0.06,0.37
			c0.07,0.08,0.19,0.12,0.35,0.12h2.13c0.43,0,0.81-0.04,1.14-0.11c0.33-0.08,0.62-0.19,0.87-0.32s0.47-0.29,0.64-0.46
			c0.18-0.18,0.33-0.36,0.44-0.56c0.11-0.19,0.19-0.39,0.24-0.59c0.05-0.21,0.08-0.4,0.08-0.59c0-0.21-0.03-0.4-0.09-0.57
			c-0.06-0.17-0.14-0.31-0.24-0.43c-0.11-0.13-0.23-0.23-0.38-0.31c-0.14-0.07-0.31-0.13-0.48-0.16c0.22-0.08,0.42-0.19,0.59-0.32
			c0.18-0.13,0.33-0.29,0.45-0.46C110.63,66.34,110.72,66.15,110.79,65.94z M102.05,66.1c0.01-0.06,0.02-0.11,0.02-0.15
			c0-0.08-0.02-0.14-0.04-0.19c-0.02-0.04-0.07-0.06-0.14-0.06h-1.14l0.24-1.18c0.01-0.04,0-0.08-0.02-0.11
			c-0.02-0.03-0.05-0.06-0.1-0.08c-0.05-0.02-0.12-0.03-0.22-0.05c-0.1-0.01-0.21-0.01-0.36-0.01c-0.14,0-0.26,0-0.36,0.01
			c-0.1,0.02-0.18,0.03-0.24,0.05c-0.06,0.02-0.11,0.05-0.14,0.08c-0.02,0.03-0.04,0.07-0.05,0.11l-0.24,1.18h-0.63
			c-0.07,0-0.14,0.04-0.19,0.11c-0.05,0.08-0.09,0.17-0.12,0.27c-0.03,0.1-0.06,0.21-0.07,0.32c-0.01,0.11-0.02,0.2-0.02,0.27
			c0,0.09,0.01,0.16,0.04,0.19c0.02,0.03,0.06,0.05,0.11,0.05h0.64l-0.52,2.58c-0.01,0.05-0.02,0.11-0.03,0.17
			c-0.01,0.07-0.02,0.13-0.03,0.19c-0.01,0.07-0.02,0.13-0.02,0.19c0,0.05-0.01,0.1-0.01,0.15c0,0.23,0.03,0.44,0.1,0.6
			c0.06,0.17,0.15,0.3,0.27,0.41c0.12,0.11,0.28,0.19,0.46,0.24c0.18,0.04,0.38,0.07,0.62,0.07c0.11,0,0.22-0.01,0.33-0.02
			s0.22-0.03,0.31-0.06c0.1-0.02,0.18-0.05,0.26-0.08c0.07-0.03,0.12-0.07,0.16-0.1c0.03-0.04,0.07-0.09,0.1-0.16
			c0.03-0.08,0.06-0.16,0.08-0.25c0.03-0.09,0.05-0.18,0.07-0.27c0.01-0.1,0.02-0.18,0.02-0.26c0-0.06-0.01-0.11-0.03-0.14
			c-0.03-0.03-0.05-0.05-0.08-0.05c-0.04,0-0.07,0.01-0.1,0.02c-0.04,0.02-0.08,0.03-0.13,0.05c-0.05,0.02-0.11,0.03-0.18,0.05
			c-0.06,0.01-0.15,0.02-0.24,0.02c-0.16,0-0.28-0.04-0.36-0.11c-0.07-0.07-0.11-0.19-0.11-0.35c0-0.05,0.01-0.12,0.02-0.2
			s0.02-0.15,0.03-0.21l0.5-2.48h1.15c0.05,0,0.09-0.02,0.13-0.06c0.03-0.04,0.07-0.08,0.1-0.14s0.05-0.12,0.08-0.19
			c0.02-0.07,0.04-0.15,0.05-0.22C102.04,66.23,102.05,66.17,102.05,66.1z M97.47,65.89c0.01-0.03,0-0.07-0.01-0.1
			c-0.01-0.03-0.05-0.05-0.09-0.07c-0.05-0.02-0.11-0.03-0.19-0.04c-0.08-0.01-0.18-0.02-0.3-0.02c-0.24,0-0.41,0.02-0.52,0.06
			c-0.11,0.03-0.17,0.09-0.19,0.17l-0.09,0.47c-0.19-0.26-0.41-0.46-0.67-0.59c-0.25-0.14-0.54-0.21-0.87-0.21
			c-0.35,0-0.66,0.06-0.94,0.19c-0.28,0.12-0.53,0.29-0.74,0.5c-0.22,0.21-0.41,0.45-0.56,0.72c-0.15,0.27-0.28,0.55-0.38,0.84
			c-0.1,0.3-0.17,0.59-0.22,0.89c-0.05,0.29-0.07,0.56-0.07,0.81c0,0.27,0.03,0.52,0.08,0.76c0.05,0.24,0.14,0.45,0.27,0.64
			c0.13,0.19,0.3,0.34,0.51,0.45c0.2,0.11,0.47,0.17,0.78,0.17c0.23,0,0.45-0.04,0.67-0.11c0.21-0.08,0.41-0.17,0.59-0.29
			c0.18-0.12,0.33-0.24,0.46-0.38s0.23-0.28,0.29-0.4l-0.17,0.84c-0.01,0.05,0,0.09,0.01,0.12c0.01,0.02,0.04,0.05,0.09,0.07
			c0.05,0.01,0.11,0.03,0.19,0.04c0.08,0,0.18,0.01,0.3,0.01c0.24,0,0.41-0.02,0.52-0.06c0.11-0.03,0.17-0.09,0.19-0.18L97.47,65.89
			z M97.29,64.13c0.03-0.15,0.03-0.27,0.02-0.37c-0.01-0.09-0.04-0.17-0.09-0.22c-0.05-0.05-0.12-0.09-0.21-0.11
			c-0.09-0.02-0.21-0.03-0.35-0.03c-0.13,0-0.25,0.01-0.35,0.03c-0.09,0.02-0.18,0.06-0.25,0.11c-0.07,0.05-0.13,0.13-0.17,0.22
			c-0.05,0.1-0.08,0.22-0.11,0.37c-0.02,0.14-0.03,0.26-0.03,0.36c0.01,0.09,0.04,0.17,0.09,0.22c0.05,0.06,0.12,0.1,0.21,0.12
			c0.09,0.02,0.21,0.03,0.34,0.03c0.14,0,0.26-0.01,0.36-0.03c0.1-0.02,0.19-0.06,0.26-0.12c0.07-0.05,0.12-0.13,0.17-0.22
			C97.22,64.39,97.26,64.27,97.29,64.13z M94.97,64.13c0.03-0.15,0.03-0.27,0.02-0.37c0-0.09-0.04-0.17-0.09-0.22
			c-0.05-0.05-0.12-0.09-0.21-0.11c-0.09-0.02-0.2-0.03-0.34-0.03S94.1,63.41,94,63.43c-0.1,0.02-0.19,0.06-0.26,0.11
			c-0.07,0.05-0.13,0.13-0.17,0.22c-0.05,0.1-0.08,0.22-0.11,0.37c-0.02,0.14-0.03,0.26-0.02,0.36c0.01,0.09,0.04,0.17,0.09,0.22
			c0.04,0.06,0.12,0.1,0.21,0.12c0.09,0.02,0.2,0.03,0.34,0.03c0.13,0,0.25-0.01,0.35-0.03c0.1-0.02,0.19-0.06,0.26-0.12
			c0.07-0.05,0.13-0.13,0.17-0.22C94.9,64.39,94.94,64.27,94.97,64.13z M91.58,66.1c0-0.06,0.01-0.11,0.01-0.15
			c0-0.08-0.01-0.14-0.04-0.19c-0.02-0.04-0.07-0.06-0.13-0.06h-1.15l0.24-1.18c0.01-0.04,0-0.08-0.02-0.11
			c-0.01-0.03-0.05-0.06-0.1-0.08c-0.05-0.02-0.12-0.03-0.22-0.05c-0.09-0.01-0.21-0.01-0.35-0.01c-0.15,0-0.27,0-0.37,0.01
			c-0.1,0.02-0.17,0.03-0.24,0.05c-0.06,0.02-0.1,0.05-0.13,0.08c-0.03,0.03-0.05,0.07-0.06,0.11l-0.24,1.18h-0.63
			c-0.07,0-0.13,0.04-0.18,0.11c-0.06,0.08-0.1,0.17-0.13,0.27c-0.03,0.1-0.05,0.21-0.07,0.32c-0.01,0.11-0.02,0.2-0.02,0.27
			c0,0.09,0.01,0.16,0.04,0.19c0.02,0.03,0.06,0.05,0.11,0.05h0.64l-0.52,2.58c-0.01,0.05-0.02,0.11-0.03,0.17
			c-0.01,0.07-0.02,0.13-0.03,0.19c-0.01,0.07-0.01,0.13-0.02,0.19c0,0.05,0,0.1,0,0.15c0,0.23,0.03,0.44,0.09,0.6
			c0.06,0.17,0.15,0.3,0.27,0.41c0.13,0.11,0.28,0.19,0.46,0.24c0.18,0.04,0.39,0.07,0.62,0.07c0.11,0,0.22-0.01,0.33-0.02
			c0.12-0.01,0.22-0.03,0.32-0.06c0.09-0.02,0.18-0.05,0.25-0.08s0.12-0.07,0.16-0.1c0.03-0.04,0.07-0.09,0.1-0.16
			c0.03-0.08,0.06-0.16,0.09-0.25c0.02-0.09,0.04-0.18,0.06-0.27c0.01-0.1,0.02-0.18,0.02-0.26c0-0.06-0.01-0.11-0.03-0.14
			c-0.02-0.03-0.05-0.05-0.08-0.05s-0.07,0.01-0.1,0.02c-0.04,0.02-0.08,0.03-0.13,0.05c-0.05,0.02-0.11,0.03-0.18,0.05
			c-0.06,0.01-0.14,0.02-0.24,0.02c-0.16,0-0.28-0.04-0.35-0.11c-0.08-0.07-0.12-0.19-0.12-0.35c0-0.05,0.01-0.12,0.02-0.2
			c0.01-0.08,0.02-0.15,0.03-0.21l0.5-2.48h1.16c0.04,0,0.08-0.02,0.12-0.06c0.03-0.04,0.07-0.08,0.1-0.14s0.05-0.12,0.08-0.19
			c0.02-0.07,0.04-0.15,0.05-0.22C91.56,66.23,91.57,66.17,91.58,66.1z M60,67.5c0.02-0.14,0.03-0.28,0.03-0.42
			c0-0.2-0.03-0.4-0.08-0.58c-0.05-0.19-0.14-0.35-0.25-0.49c-0.12-0.13-0.27-0.25-0.46-0.33c-0.19-0.08-0.42-0.12-0.7-0.12
			c-0.22,0-0.45,0.04-0.66,0.11s-0.4,0.17-0.58,0.28c-0.18,0.12-0.34,0.25-0.48,0.39c-0.14,0.15-0.25,0.29-0.33,0.43l0.17-0.88
			c0.01-0.03,0-0.07-0.01-0.1c-0.01-0.03-0.04-0.05-0.09-0.07c-0.04-0.02-0.1-0.03-0.18-0.04c-0.07-0.01-0.17-0.02-0.29-0.02
			s-0.23,0.01-0.31,0.02c-0.09,0.01-0.16,0.02-0.21,0.04c-0.05,0.02-0.09,0.04-0.12,0.07c-0.02,0.03-0.04,0.07-0.05,0.1l-1.06,5.3
			c-0.01,0.04,0,0.07,0.01,0.1c0.02,0.03,0.05,0.06,0.11,0.08c0.05,0.02,0.12,0.03,0.22,0.04c0.09,0.01,0.21,0.02,0.35,0.02
			c0.15,0,0.27-0.01,0.37-0.02c0.1-0.01,0.18-0.02,0.24-0.04c0.06-0.02,0.1-0.05,0.13-0.08s0.05-0.06,0.06-0.1l0.48-2.4
			c0.05-0.26,0.14-0.51,0.26-0.75c0.12-0.23,0.26-0.44,0.42-0.61c0.15-0.18,0.32-0.32,0.5-0.42c0.17-0.1,0.34-0.15,0.5-0.15
			c0.18,0,0.31,0.05,0.38,0.17c0.08,0.11,0.12,0.26,0.12,0.44c0,0.07-0.01,0.16-0.02,0.26c-0.01,0.09-0.02,0.19-0.04,0.29
			l-0.64,3.17c-0.01,0.04-0.01,0.07,0.01,0.1c0.02,0.03,0.05,0.06,0.1,0.08c0.06,0.02,0.13,0.03,0.22,0.04
			c0.09,0.01,0.21,0.02,0.36,0.02c0.14,0,0.27-0.01,0.36-0.02c0.1-0.01,0.18-0.02,0.24-0.04c0.06-0.02,0.11-0.05,0.14-0.08
			s0.05-0.06,0.05-0.1l0.66-3.27C59.96,67.78,59.98,67.63,60,67.5z M54.21,63.93c0.01-0.04,0-0.07-0.01-0.1
			c-0.02-0.04-0.06-0.06-0.11-0.08c-0.06-0.02-0.13-0.04-0.23-0.05c-0.09-0.01-0.22-0.02-0.37-0.02c-0.15,0-0.27,0.01-0.38,0.02
			c-0.1,0.01-0.18,0.03-0.24,0.05c-0.06,0.02-0.11,0.04-0.14,0.08c-0.03,0.03-0.05,0.06-0.05,0.1l-0.92,4.59
			c-0.06,0.27-0.15,0.52-0.26,0.73c-0.12,0.21-0.26,0.39-0.43,0.54c-0.16,0.15-0.35,0.26-0.57,0.34c-0.21,0.08-0.45,0.12-0.7,0.12
			s-0.46-0.04-0.64-0.11s-0.32-0.17-0.43-0.32c-0.1-0.14-0.17-0.33-0.19-0.55c-0.03-0.22-0.01-0.48,0.05-0.79l0.91-4.55
			c0.01-0.04,0-0.07-0.01-0.1c-0.02-0.04-0.06-0.06-0.11-0.08c-0.06-0.02-0.13-0.04-0.23-0.05c-0.1-0.01-0.23-0.02-0.38-0.02
			s-0.28,0.01-0.38,0.02c-0.1,0.01-0.18,0.03-0.25,0.05c-0.06,0.02-0.11,0.04-0.14,0.08c-0.03,0.03-0.05,0.06-0.06,0.1l-0.91,4.55
			c-0.1,0.51-0.12,0.95-0.06,1.33s0.2,0.7,0.42,0.95c0.22,0.25,0.52,0.45,0.89,0.57c0.37,0.13,0.82,0.2,1.34,0.2
			c0.49,0,0.94-0.07,1.34-0.19c0.41-0.12,0.77-0.31,1.08-0.56s0.57-0.56,0.78-0.93c0.21-0.37,0.37-0.8,0.47-1.29L54.21,63.93z"/>
		<path d="M117.21,23.85l13.25,35.24h-11.4l-1.73-5.82h-12.41l-1.7,5.82h-6.05c-2.02,0.38-3.93,0.57-5.72,0.57
			c-2.44,0-4.24-0.31-5.39-0.93c-1.15-0.63-2.01-1.58-2.56-2.85c-0.55-1.27-0.82-3.34-0.82-6.19V40.7h-3.61v-7.14h3.61v-4.69
			l9.8-5.02v9.71h5.38v7.14h-5.38v9.06c0,1.09,0.11,1.81,0.31,2.17c0.32,0.54,0.88,0.82,1.68,0.82h0.01l10.85-28.9H117.21z
			 M115.05,45.65l-3.9-12.67l-3.87,12.67H115.05z"/>
		<path d="M115.61,67.34c0.03,0.13,0.05,0.27,0.05,0.44c0,0.18-0.02,0.36-0.04,0.56c-0.03,0.19-0.08,0.38-0.14,0.58
			c-0.06,0.19-0.13,0.37-0.22,0.54c-0.09,0.17-0.2,0.33-0.32,0.46c-0.13,0.13-0.27,0.23-0.43,0.31c-0.16,0.08-0.33,0.12-0.53,0.12
			c-0.18,0-0.32-0.03-0.44-0.07c-0.12-0.05-0.22-0.12-0.3-0.21c-0.08-0.09-0.13-0.2-0.17-0.33c-0.03-0.13-0.04-0.28-0.04-0.44
			c0-0.18,0.01-0.37,0.04-0.56c0.02-0.2,0.07-0.39,0.13-0.58c0.05-0.19,0.13-0.37,0.22-0.54c0.09-0.18,0.2-0.33,0.32-0.46
			c0.13-0.13,0.27-0.23,0.43-0.31c0.16-0.08,0.33-0.11,0.53-0.11c0.18,0,0.32,0.02,0.44,0.07c0.12,0.04,0.22,0.11,0.3,0.2
			C115.52,67.1,115.57,67.21,115.61,67.34z"/>
		<path d="M109.22,65.28c0.04,0.09,0.06,0.18,0.06,0.29c0,0.15-0.03,0.3-0.08,0.45s-0.13,0.29-0.23,0.42
			c-0.11,0.13-0.25,0.24-0.42,0.32c-0.17,0.08-0.39,0.12-0.64,0.12h-0.88l0.4-1.99h0.85c0.19,0,0.34,0.01,0.46,0.04
			c0.12,0.04,0.22,0.08,0.3,0.14C109.12,65.13,109.18,65.2,109.22,65.28z"/>
		<path d="M109.02,68.83c0,0.17-0.03,0.34-0.09,0.51c-0.06,0.16-0.15,0.31-0.28,0.43c-0.12,0.13-0.28,0.23-0.47,0.31
			c-0.19,0.08-0.43,0.12-0.71,0.12h-1.1l0.43-2.18h1.04c0.41,0,0.71,0.07,0.89,0.22C108.92,68.38,109.02,68.58,109.02,68.83z"/>
		<path d="M95.68,67.48l-0.17,0.8c-0.06,0.28-0.15,0.53-0.27,0.77c-0.12,0.24-0.26,0.45-0.41,0.63c-0.16,0.18-0.33,0.32-0.51,0.43
			c-0.18,0.1-0.36,0.15-0.54,0.15c-0.12,0-0.22-0.02-0.3-0.07c-0.08-0.05-0.14-0.11-0.19-0.2c-0.05-0.08-0.08-0.18-0.1-0.28
			c-0.01-0.11-0.02-0.22-0.02-0.34c0-0.16,0.01-0.34,0.03-0.53c0.03-0.19,0.07-0.38,0.12-0.57c0.06-0.19,0.12-0.37,0.21-0.54
			c0.08-0.18,0.17-0.33,0.28-0.46c0.1-0.14,0.23-0.24,0.36-0.32c0.14-0.08,0.29-0.12,0.46-0.12c0.22,0,0.42,0.06,0.59,0.16
			C95.38,67.1,95.54,67.27,95.68,67.48z"/>
		<path d="M86.77,61.4v1.94c-0.17,0-0.32,0.01-0.43,0.04c-0.11,0.03-0.21,0.07-0.29,0.14c-0.08,0.06-0.14,0.14-0.19,0.24
			c-0.05,0.1-0.08,0.22-0.11,0.36c-0.03,0.15-0.05,0.27-0.04,0.37c0.01,0.1,0.04,0.18,0.09,0.24c0.06,0.07,0.14,0.11,0.24,0.14
			c0.11,0.02,0.24,0.03,0.41,0.03h0.01l0.03,0.77c-0.06-0.01-0.13-0.01-0.2-0.01c-0.14,0-0.26,0.01-0.36,0.02
			c-0.1,0.01-0.18,0.03-0.24,0.05c-0.06,0.02-0.11,0.05-0.13,0.08c-0.03,0.03-0.05,0.06-0.06,0.1l-0.83,4.17l-1.08-0.21
			c0.03-0.14,0.04-0.28,0.04-0.43c0-0.26-0.05-0.47-0.15-0.64c-0.1-0.17-0.22-0.31-0.37-0.43c-0.15-0.12-0.31-0.22-0.49-0.3
			c-0.17-0.08-0.33-0.15-0.48-0.23c-0.15-0.07-0.28-0.15-0.38-0.23c-0.1-0.08-0.15-0.19-0.15-0.31c0-0.09,0.02-0.18,0.06-0.27
			c0.03-0.08,0.09-0.15,0.16-0.21s0.16-0.11,0.27-0.15c0.11-0.03,0.23-0.05,0.37-0.05c0.18,0,0.33,0.01,0.46,0.05
			c0.14,0.04,0.25,0.08,0.35,0.12c0.1,0.05,0.18,0.09,0.25,0.13s0.13,0.05,0.18,0.05c0.05,0,0.09-0.03,0.13-0.1s0.07-0.15,0.1-0.25
			c0.03-0.09,0.05-0.19,0.06-0.28c0.01-0.09,0.02-0.16,0.02-0.21c0-0.09-0.02-0.16-0.06-0.2c-0.05-0.04-0.11-0.09-0.2-0.13
			c-0.09-0.04-0.2-0.08-0.33-0.12c-0.12-0.03-0.26-0.06-0.42-0.09c-0.15-0.02-0.32-0.03-0.48-0.03c-0.37,0-0.7,0.05-1,0.15
			c-0.29,0.1-0.54,0.25-0.74,0.42c-0.21,0.19-0.37,0.4-0.47,0.64l-0.67-0.19c0.01-0.02,0.01-0.05,0.02-0.07
			c0.02-0.1,0.04-0.2,0.06-0.3c0.02-0.09,0.03-0.17,0.03-0.25c0.01-0.07,0.02-0.11,0.02-0.14c0-0.05-0.01-0.09-0.04-0.12
			c-0.02-0.02-0.05-0.03-0.1-0.05c-0.04-0.02-0.09-0.03-0.14-0.05c-0.05-0.01-0.11-0.02-0.17-0.03c-0.06,0-0.12-0.01-0.18-0.01
			c-0.15,0-0.3,0.03-0.45,0.09c-0.14,0.06-0.29,0.14-0.43,0.25c-0.14,0.1-0.27,0.23-0.4,0.37c-0.12,0.14-0.23,0.3-0.33,0.47
			l0.17-0.85c0.01-0.03,0-0.07-0.01-0.1c-0.02-0.03-0.04-0.05-0.09-0.07c-0.04-0.02-0.1-0.03-0.18-0.04
			c-0.08-0.01-0.17-0.02-0.3-0.02c-0.12,0-0.22,0.01-0.3,0.02c-0.09,0.01-0.16,0.02-0.21,0.04c-0.05,0.02-0.09,0.04-0.12,0.07
			c-0.03,0.03-0.05,0.07-0.05,0.1l-0.32,1.62l-1.21-0.24c0.01-0.07,0.01-0.14,0.01-0.21c0-0.19-0.04-0.37-0.12-0.55
			c-0.08-0.18-0.2-0.34-0.37-0.48c-0.16-0.14-0.38-0.26-0.64-0.34c-0.25-0.09-0.56-0.13-0.92-0.13c-0.42,0-0.79,0.06-1.11,0.19
			c-0.33,0.12-0.61,0.28-0.86,0.49c-0.25,0.2-0.46,0.44-0.63,0.7c-0.09,0.13-0.17,0.27-0.24,0.42l-0.98-0.38
			c0.1-0.26,0.19-0.51,0.27-0.76c0.03-0.07,0.04-0.14,0.05-0.2c0.02-0.06,0.02-0.12,0.02-0.16s-0.01-0.07-0.02-0.09
			c-0.02-0.02-0.06-0.05-0.1-0.06c-0.05-0.01-0.13-0.03-0.22-0.03c-0.09-0.01-0.21-0.02-0.36-0.02s-0.27,0.01-0.37,0.02
			c-0.11,0-0.19,0.02-0.25,0.04c-0.07,0.02-0.12,0.04-0.15,0.07c-0.03,0.03-0.05,0.08-0.06,0.13c-0.12,0.39-0.24,0.75-0.37,1.1
			c-0.12,0.35-0.25,0.69-0.39,1.01c-0.14,0.32-0.29,0.64-0.46,0.95c-0.16,0.31-0.36,0.6-0.54,0.92l-0.03,0.04V69.8l-0.45-3.88
			c-0.01-0.05-0.02-0.09-0.03-0.12c-0.02-0.04-0.05-0.07-0.1-0.08c-0.05-0.02-0.12-0.04-0.21-0.04c-0.09-0.01-0.22-0.02-0.38-0.02
			c-0.17,0-0.3,0.01-0.4,0.02c-0.1,0.01-0.18,0.03-0.23,0.06c-0.06,0.02-0.09,0.06-0.11,0.1c-0.02,0.04-0.03,0.1-0.03,0.18
			l-0.86-0.11c0.01-0.04,0.01-0.07-0.01-0.1s-0.05-0.06-0.1-0.08c-0.06-0.02-0.13-0.04-0.22-0.05c-0.05-0.01-0.1-0.01-0.16-0.01
			l-0.03-0.77c0.16,0,0.3-0.01,0.41-0.03c0.11-0.03,0.21-0.07,0.29-0.14c0.08-0.06,0.14-0.14,0.19-0.24s0.08-0.22,0.11-0.37
			c0.03-0.14,0.04-0.26,0.04-0.36c-0.01-0.1-0.04-0.18-0.09-0.24c-0.06-0.07-0.14-0.11-0.24-0.14c-0.1-0.03-0.24-0.04-0.41-0.04
			V61.4H86.77z"/>
		<path d="M81.01,57.66l0.59,1.43h-4.38c0.97-0.23,1.86-0.52,2.67-0.88C80.28,58.04,80.65,57.86,81.01,57.66z"/>
		<path d="M75.23,46.68c0.81,0.73,1.2,1.55,1.2,2.46c0,0.96-0.42,1.8-1.25,2.53c-0.85,0.73-2.05,1.09-3.6,1.09
			c-2.08,0-3.69-0.7-4.8-2.13c-0.69-0.89-1.15-2.17-1.37-3.85l-10.37,0.65c0.31,3.56,1.61,6.49,3.92,8.79
			c1.35,1.35,3.32,2.31,5.93,2.87h-8.96l-2.24-5.82h-9.83L40.22,73.7H0L33.29,0l25.46,3.89l8.13,19.64
			c-1.64,0.23-3.04,0.59-4.21,1.1c-2.11,0.93-3.68,2.19-4.73,3.8c-1.05,1.61-1.58,3.32-1.58,5.13c0,2.76,1.03,5.03,3.08,6.81
			c2.04,1.78,5.44,3.2,10.21,4.27C72.58,45.28,74.43,45.96,75.23,46.68z M50.63,45.34l-7.8-20.24L26.81,41.33L50.63,45.34z"/>
		<path d="M73.47,67.18c0,0.11-0.03,0.21-0.09,0.31c-0.06,0.09-0.15,0.18-0.28,0.25c-0.13,0.07-0.31,0.13-0.52,0.17
			s-0.48,0.06-0.8,0.06h-0.49c0.05-0.19,0.12-0.36,0.2-0.53c0.09-0.16,0.19-0.3,0.31-0.42c0.12-0.12,0.25-0.22,0.41-0.29
			c0.16-0.07,0.33-0.11,0.53-0.11c0.24,0,0.42,0.06,0.54,0.16C73.41,66.89,73.47,67.02,73.47,67.18z"/>
		<path d="M69.5,29.85l2.38,5.75c-0.32-0.07-0.66-0.14-0.99-0.21c-1.93-0.41-3.15-0.83-3.66-1.3c-0.53-0.45-0.79-0.95-0.79-1.51
			c0-0.77,0.32-1.43,0.96-1.96C67.9,30.19,68.6,29.94,69.5,29.85z"/>
	</g>
	<g>
	</g>
</g>
</svg>
